<?xml version="1.0" standalone="no"?>
<!DOCTYPE svg PUBLIC "-//W3C//DTD SVG 20010904//EN"
 "http://www.w3.org/TR/2001/REC-SVG-20010904/DTD/svg10.dtd">
<svg version="1.0" xmlns="http://www.w3.org/2000/svg"
 width="700.000000pt" height="700.000000pt" viewBox="0 0 700.000000 700.000000"
 preserveAspectRatio="xMidYMid meet">
<metadata>
Created by potrace 1.14, written by Peter Selinger 2001-2017
</metadata>
<g transform="translate(0.000000,700.000000) scale(0.100000,-0.100000)"
fill="#000000" stroke="none">
<path d="M6132 6573 c-28 -14 -46 -42 -133 -219 -55 -112 -103 -204 -107 -204
-4 0 -50 -7 -102 -16 -52 -8 -115 -17 -140 -20 -25 -2 -54 -6 -66 -9 -11 -2
-42 -7 -69 -10 -66 -8 -99 -28 -120 -71 -34 -71 -22 -91 160 -269 122 -119
162 -165 160 -180 -2 -11 -7 -40 -10 -65 -3 -25 -10 -61 -15 -80 -4 -19 -11
-55 -14 -80 -3 -25 -9 -61 -14 -80 -5 -19 -10 -62 -11 -96 -2 -57 0 -63 29
-93 17 -17 39 -31 48 -32 9 0 26 -2 37 -4 11 -2 91 33 185 82 267 140 236 129
284 103 259 -139 365 -188 397 -184 47 7 78 30 94 67 14 34 14 29 -22 242 -14
83 -27 166 -30 185 -2 19 -6 40 -7 45 -2 6 66 78 151 160 85 83 161 162 169
177 17 33 18 72 2 101 -29 54 -59 67 -193 82 -57 7 -103 14 -125 20 -8 2 -40
6 -70 10 -125 14 -109 -3 -219 221 -89 181 -102 202 -134 217 -44 21 -73 21
-115 0z m123 -490 c33 -64 71 -125 85 -134 22 -16 47 -22 135 -34 11 -1 47 -6
80 -11 33 -4 64 -7 68 -6 16 5 -5 -19 -93 -104 -48 -47 -93 -98 -100 -114 -10
-24 -8 -53 9 -161 12 -72 20 -133 17 -136 -2 -2 -55 23 -118 56 -73 39 -127
61 -147 61 -21 0 -75 -22 -146 -60 -62 -33 -116 -60 -119 -60 -4 0 -4 12 -2
28 3 15 11 59 17 97 7 39 13 96 13 127 l1 58 -105 105 c-58 59 -100 105 -95
104 8 -2 133 11 155 16 3 1 29 5 58 9 31 5 64 17 80 31 16 13 52 74 82 138 30
63 57 113 60 110 3 -2 32 -56 65 -120z"/>
<path d="M3050 6464 c-52 -7 -104 -15 -115 -18 -220 -49 -426 -142 -604 -274
-156 -114 -333 -318 -425 -488 -48 -88 -111 -247 -135 -344 -72 -282 -61 -596
31 -860 33 -97 86 -213 129 -283 16 -26 29 -50 29 -52 0 -3 -143 -5 -317 -4
l-318 1 -355 -177 c-195 -97 -391 -194 -435 -215 -419 -199 -439 -212 -498
-338 -29 -61 -32 -76 -32 -163 0 -87 3 -101 32 -160 38 -75 60 -102 126 -152
68 -51 157 -77 253 -73 82 4 122 21 389 164 61 32 204 107 320 166 116 60 219
113 230 119 11 6 84 11 168 12 l149 1 -754 -751 c-415 -412 -766 -768 -781
-790 -115 -178 -42 -425 153 -523 49 -24 66 -27 155 -27 145 0 174 17 384 223
123 122 214 200 354 304 103 77 190 139 192 137 2 -2 47 -46 99 -97 l95 -94
-360 -358 c-324 -323 -362 -364 -390 -423 -143 -306 177 -624 483 -480 62 29
109 73 611 575 299 299 592 597 652 663 59 66 127 140 149 165 23 25 111 122
196 215 85 94 159 175 165 181 5 6 53 57 105 114 52 56 102 110 110 120 8 9
54 60 102 111 48 52 97 106 110 120 l23 26 150 -22 c83 -12 170 -25 195 -28
25 -3 77 -10 115 -16 39 -5 93 -13 120 -17 28 -3 59 -8 70 -11 11 -2 52 -7 90
-10 l71 -6 374 250 c206 137 391 265 411 284 19 19 88 83 152 144 65 60 131
131 148 157 139 216 29 509 -219 582 -31 9 -83 14 -130 13 -97 -3 -154 -28
-277 -122 -137 -105 -524 -396 -581 -437 l-51 -37 -141 56 c-78 31 -142 59
-142 62 0 3 15 12 33 20 57 25 206 119 275 174 380 303 589 747 577 1222 -4
131 -10 181 -37 300 -55 240 -159 448 -323 645 -69 82 -106 118 -205 198 -83
67 -74 61 -150 108 -291 183 -660 263 -1000 218z m321 -228 c13 -3 27 -5 30
-5 4 -1 -106 -376 -273 -926 l-34 -110 -39 -3 c-268 -19 -445 -284 -360 -536
35 -104 111 -188 213 -238 63 -31 74 -33 172 -33 99 0 109 2 173 33 68 34 125
81 164 136 l21 30 248 -114 c137 -62 281 -128 319 -145 94 -44 149 -68 219
-99 l58 -26 -48 -57 c-156 -184 -342 -312 -564 -391 -88 -31 -153 -48 -214
-57 -20 -3 -53 -7 -73 -10 -53 -8 -197 -7 -273 0 -56 6 -102 15 -216 40 -70
16 -240 91 -324 144 -384 240 -614 649 -614 1091 1 200 40 371 129 555 129
269 359 493 628 614 76 34 212 79 266 87 20 3 39 8 43 10 4 2 49 7 100 11 51
3 94 6 95 7 4 3 130 -4 154 -8z m362 -89 c365 -147 648 -465 754 -847 12 -47
26 -105 29 -130 3 -25 8 -54 10 -65 7 -33 6 -226 -1 -290 -13 -113 -63 -293
-106 -377 l-19 -37 -152 70 c-84 39 -171 79 -193 89 -70 32 -478 216 -521 235
-38 16 -42 22 -54 74 -18 79 -53 145 -112 204 l-50 52 148 490 c81 270 152
507 158 528 5 20 14 37 18 37 5 0 46 -15 91 -33z m-574 -1207 c74 -37 110
-112 92 -191 -13 -56 -38 -88 -92 -117 -114 -61 -252 26 -251 157 1 127 138
209 251 151z m-942 -1096 c90 -81 153 -127 259 -190 150 -88 319 -153 474
-180 14 -3 31 -7 38 -9 57 -20 345 -24 460 -6 50 8 79 8 92 1 10 -5 133 -55
272 -111 139 -55 258 -107 264 -114 6 -8 16 -47 24 -87 14 -83 13 -78 34 -176
9 -40 16 -77 16 -81 0 -4 -24 -4 -52 0 -29 5 -71 11 -93 13 -43 6 -244 34
-285 41 -23 3 -143 20 -213 30 -70 9 -86 -3 -282 -220 -26 -29 -195 -214 -215
-235 -8 -9 -55 -61 -105 -115 -49 -55 -99 -109 -110 -121 -33 -35 -104 -113
-205 -224 -52 -58 -120 -131 -150 -163 -30 -32 -56 -63 -58 -68 -7 -19 -26 -7
-86 52 -33 34 -245 242 -469 462 l-408 401 322 322 c313 313 321 322 326 366
4 33 0 53 -12 72 -35 53 -55 57 -303 56 -125 0 -239 -1 -255 0 l-27 0 4 173
c2 94 5 173 5 175 1 1 152 1 337 -1 l335 -4 66 -59z m-982 -171 c-3 -86 -8
-160 -12 -164 -13 -11 -326 -169 -330 -166 -4 5 -93 261 -93 270 0 7 417 217
432 217 4 0 5 -71 3 -157z m3928 136 c36 -19 58 -42 73 -78 34 -82 10 -135
-117 -251 -50 -47 -95 -86 -99 -88 -6 -2 -200 249 -200 261 0 12 187 152 220
164 37 13 88 10 123 -8z m-4529 -439 c27 -78 47 -142 45 -144 -29 -22 -246
-127 -270 -130 -104 -12 -193 84 -170 185 15 66 36 84 169 148 70 34 134 65
142 70 8 6 20 10 26 10 6 1 32 -62 58 -139z m4098 4 c54 -71 98 -131 98 -134
0 -3 -100 -71 -223 -152 -187 -124 -223 -145 -229 -130 -8 17 -59 272 -62 305
-1 12 48 55 149 132 83 62 155 112 160 111 6 -1 54 -61 107 -132z m-3016
-1249 c251 -247 463 -456 471 -463 7 -7 13 -16 13 -20 0 -4 -131 -137 -291
-296 l-290 -289 -90 89 c-49 49 -89 92 -89 96 0 4 90 97 199 206 163 162 200
204 205 232 10 52 0 80 -41 123 -91 93 -353 351 -365 358 -19 13 -86 11 -111
-3 -19 -10 -141 -98 -187 -135 -68 -55 -206 -153 -214 -153 -6 1 -53 43 -105
94 l-93 93 263 261 c144 144 264 261 265 259 1 -1 208 -204 460 -452z m-1059
-327 l91 -91 -114 -113 c-117 -115 -156 -139 -209 -130 -85 16 -134 107 -97
181 13 26 219 243 232 244 2 1 46 -40 97 -91z m707 -817 l88 -88 -112 -113
c-62 -61 -127 -118 -144 -125 -31 -13 -71 -10 -118 10 -46 19 -73 118 -46 168
15 28 220 236 233 236 6 1 50 -39 99 -88z"/>
<path d="M3731 5795 c-13 -52 -25 -104 -28 -114 -4 -16 2 -22 34 -30 106 -29
244 -147 295 -252 22 -45 50 -152 47 -177 -4 -26 7 -29 117 -29 l117 1 -6 70
c-20 256 -198 485 -462 595 -40 17 -78 31 -82 31 -5 0 -19 -43 -32 -95z"/>
<path d="M4079 4928 c-2 -72 1 -192 5 -196 4 -3 176 -6 214 -3 9 1 12 31 12
116 l0 115 -115 0 -115 0 -1 -32z"/>
<path d="M2394 3439 c-39 -11 -541 -507 -550 -544 -17 -67 -5 -82 261 -347
140 -139 262 -256 272 -260 31 -12 87 -8 108 8 33 24 485 477 506 506 21 28
24 63 10 101 -8 20 -198 215 -463 475 -59 57 -97 73 -144 61z m181 -428 c80
-79 145 -147 145 -150 0 -4 -66 -73 -148 -154 l-147 -147 -151 151 -152 151
147 148 c80 81 149 147 153 146 4 -1 73 -66 153 -145z"/>
<path d="M1050 5545 c0 -85 -3 -115 -12 -116 -7 0 -59 0 -114 1 -76 1 -103 -2
-106 -12 -3 -10 -3 -193 1 -219 1 -4 52 -6 114 -6 l112 2 3 -118 3 -117 113 0
c133 0 122 -12 120 135 l-1 100 116 0 116 0 1 117 1 117 -117 -2 -117 -2 1
115 1 115 -118 3 -117 3 0 -116z m227 -128 c8 -13 9 -197 1 -210 -5 -8 -45
-12 -118 -13 l-110 -1 0 118 0 117 110 -1 c61 0 113 -5 117 -10z"/>
<path d="M5483 2393 l0 -118 111 2 c61 0 114 2 117 2 3 1 6 53 6 116 l0 115
-117 0 -116 0 -1 -117z"/>
<path d="M5250 2161 l0 -116 115 0 c109 -1 115 0 116 20 5 82 4 183 -3 196 -6
13 -27 16 -117 16 l-111 1 0 -117z"/>
<path d="M5719 2276 c-5 -5 -2 -211 3 -219 5 -8 45 -12 118 -12 l110 0 0 116
0 117 -115 -1 c-63 0 -115 -1 -116 -1z"/>
<path d="M5488 2045 c0 0 -2 -53 -3 -117 l-2 -118 117 0 116 0 1 118 0 117
-113 0 c-63 0 -115 0 -116 0z"/>
<path d="M3269 1680 c-1 -8 -2 -60 -3 -115 l-1 -100 -116 -3 -117 -3 1 -114 1
-115 38 -1 c21 0 54 -1 73 -1 19 0 55 1 79 1 l44 1 -2 115 -1 115 118 0 117 0
0 -115 0 -114 -117 -3 -117 -3 0 -115 0 -115 117 0 117 -1 0 119 0 118 110 -2
c61 -1 114 1 117 5 3 3 6 55 7 116 l1 110 -117 0 -118 0 0 118 0 117 -115 0
c-96 1 -115 -2 -116 -15z"/>
<path d="M4669 1217 c-4 -46 -3 -210 1 -217 3 -4 55 -7 115 -6 l110 1 3 -117
3 -118 -116 0 c-85 0 -115 3 -116 13 -1 6 -1 58 -1 115 0 70 -4 102 -11 103
-51 4 -210 3 -216 -1 -5 -3 -8 -54 -7 -115 l1 -110 116 -3 116 -3 -2 -102 c0
-56 2 -109 6 -117 7 -14 59 -17 207 -11 21 1 22 4 22 116 l0 114 117 3 117 3
1 113 c0 61 -2 112 -5 113 -3 1 -54 2 -115 2 l-110 2 -3 116 -3 117 -114 1
c-83 0 -115 -3 -116 -12z"/>
</g>
</svg>
